<svg xmlns="http://www.w3.org/2000/svg" viewBox="0 0 880 640" width="880" height="640" shape-rendering="crispEdges">
<defs>
  <style>
    .mc { font-family: 'Courier New', monospace; font-weight: bold; letter-spacing: 0.5px; }
    @keyframes enchant {
      0%, 100% { opacity: 0.7; }
      50% { opacity: 1; fill: #cc77ff; }
    }
    @keyframes arrowPulse {
      0%, 100% { opacity: 0.4; }
      50% { opacity: 1; }
    }
    .enchanted { animation: enchant 1.5s ease-in-out infinite; }
    .arrow-anim { animation: arrowPulse 2s ease-in-out infinite; }
  </style>
  <!-- Dirt texture pattern -->
  <pattern id="dirt" width="16" height="16" patternUnits="userSpaceOnUse">
    <rect width="16" height="16" fill="#866043"/>
    <rect x="2" y="1" width="3" height="2" fill="#6b4c33"/>
    <rect x="9" y="0" width="4" height="2" fill="#9b7653"/>
    <rect x="0" y="4" width="2" height="3" fill="#7a5a3f"/>
    <rect x="6" y="3" width="3" height="2" fill="#6b4c33"/>
    <rect x="12" y="5" width="3" height="2" fill="#9b7653"/>
    <rect x="1" y="8" width="4" height="3" fill="#7a5a3f"/>
    <rect x="8" y="7" width="2" height="2" fill="#6b4c33"/>
    <rect x="13" y="9" width="3" height="2" fill="#7a5a3f"/>
    <rect x="4" y="11" width="3" height="2" fill="#9b7653"/>
    <rect x="10" y="12" width="4" height="3" fill="#6b4c33"/>
    <rect x="0" y="14" width="3" height="2" fill="#9b7653"/>
    <rect x="7" y="14" width="2" height="2" fill="#7a5a3f"/>
  </pattern>
  <!-- Inventory slot (sunken 3D) -->
  <g id="s">
    <rect width="40" height="40" fill="#8b8b8b"/>
    <line x1="0" y1="0" x2="40" y2="0" stroke="#373737" stroke-width="2"/>
    <line x1="0" y1="0" x2="0" y2="40" stroke="#373737" stroke-width="2"/>
    <line x1="40" y1="0" x2="40" y2="40" stroke="#ffffff" stroke-width="1"/>
    <line x1="0" y1="40" x2="40" y2="40" stroke="#ffffff" stroke-width="1"/>
  </g>
  <!-- Selected hotbar slot -->
  <g id="ss">
    <rect x="-4" y="-4" width="48" height="48" fill="#ffffff" opacity="0.9"/>
    <rect x="-2" y="-2" width="44" height="44" fill="#000000"/>
    <rect width="40" height="40" fill="#8b8b8b"/>
    <line x1="0" y1="0" x2="40" y2="0" stroke="#373737" stroke-width="2"/>
    <line x1="0" y1="0" x2="0" y2="40" stroke="#373737" stroke-width="2"/>
    <line x1="40" y1="0" x2="40" y2="40" stroke="#ffffff" stroke-width="1"/>
    <line x1="0" y1="40" x2="40" y2="40" stroke="#ffffff" stroke-width="1"/>
  </g>
</defs>

<!-- Dark background (game world dimmed) -->
<rect width="880" height="640" fill="#1a1a1a"/>

<!-- ===== DIRT BORDER FRAME ===== -->
<rect x="75" y="15" width="730" height="610" fill="url(#dirt)"/>

<!-- ===== WINDOW 3D BORDER (raised) ===== -->
<rect x="89" y="29" width="702" height="582" fill="#000000"/>
<rect x="89" y="29" width="701" height="581" fill="#555555"/>
<rect x="90" y="30" width="700" height="580" fill="#ffffff"/>
<rect x="91" y="31" width="699" height="579" fill="#c6c6c6"/>
<rect x="92" y="32" width="696" height="576" fill="#c6c6c6"/>

<!-- ===== TOP SECTION: CHARACTER + CRAFTING ===== -->

<!-- Player name (MC style shadow text) -->
<text x="110" y="58" class="mc" font-size="14" fill="#3f3f3f">SANKALP TRIPATHI</text>
<text x="109" y="57" class="mc" font-size="14" fill="#404040">SANKALP TRIPATHI</text>

<!-- ===== ARMOR SLOTS (left column) ===== -->
<use href="#s" x="108" y="72"/>
<use href="#s" x="108" y="114"/>
<use href="#s" x="108" y="156"/>
<use href="#s" x="108" y="198"/>

<!-- Armor items -->
<!-- Helmet (Linux - yellow) -->
<g transform="translate(112,76)">
  <rect x="4" y="4" width="24" height="12" rx="1" fill="#fcc624"/>
  <rect x="2" y="16" width="28" height="12" fill="#fcc624"/>
  <rect x="8" y="20" width="16" height="8" fill="#0a0a0a" opacity="0.25"/>
  <rect x="4" y="4" width="8" height="4" fill="#fff" opacity="0.2"/>
</g>
<!-- Chestplate (Git - orange) -->
<g transform="translate(112,118)">
  <rect x="2" y="0" width="28" height="28" rx="1" fill="#f05032"/>
  <rect x="10" y="0" width="12" height="10" fill="#1a1a1a" opacity="0.25"/>
  <rect x="4" y="2" width="6" height="4" fill="#fff" opacity="0.15"/>
</g>
<!-- Leggings (Docker - blue) -->
<g transform="translate(112,160)">
  <rect x="2" y="0" width="28" height="8" fill="#2496ed"/>
  <rect x="2" y="8" width="12" height="22" fill="#2496ed"/>
  <rect x="18" y="8" width="12" height="22" fill="#2496ed"/>
  <rect x="4" y="2" width="6" height="4" fill="#fff" opacity="0.15"/>
</g>
<!-- Boots (Bash - green) -->
<g transform="translate(112,202)">
  <rect x="2" y="6" width="12" height="20" fill="#4eaa25"/>
  <rect x="18" y="6" width="12" height="20" fill="#4eaa25"/>
  <rect x="0" y="20" width="14" height="6" fill="#4eaa25"/>
  <rect x="18" y="20" width="14" height="6" fill="#4eaa25"/>
</g>

<!-- Offhand slot (below armor) -->
<use href="#s" x="108" y="248"/>
<!-- Shield icon placeholder -->
<g transform="translate(114,252)">
  <rect x="6" y="2" width="20" height="26" rx="3" fill="#5555aa"/>
  <rect x="12" y="6" width="8" height="4" fill="#ffffff" opacity="0.3"/>
  <line x1="16" y1="6" x2="16" y2="28" stroke="#fff" stroke-width="2" opacity="0.15"/>
</g>

<!-- ===== CHARACTER MODEL ===== -->
<g transform="translate(180, 72)">
  <!-- Head -->
  <rect width="48" height="48" fill="#c8a078"/>
  <rect width="48" height="14" fill="#3b2615"/>
  <rect x="4" y="14" width="4" height="4" fill="#3b2615"/>
  <rect x="40" y="14" width="4" height="4" fill="#3b2615"/>
  <!-- Eyes -->
  <rect x="8" y="20" width="12" height="8" fill="#ffffff"/>
  <rect x="28" y="20" width="12" height="8" fill="#ffffff"/>
  <rect x="14" y="20" width="6" height="8" fill="#463820"/>
  <rect x="34" y="20" width="6" height="8" fill="#463820"/>
  <!-- Mouth -->
  <rect x="16" y="36" width="16" height="4" fill="#8b6050"/>
  <!-- Nose -->
  <rect x="20" y="30" width="8" height="4" fill="#b08868"/>

  <!-- Body (hoodie) -->
  <rect x="0" y="48" width="48" height="56" fill="#2a2a6e"/>
  <rect x="20" y="48" width="2" height="20" fill="#3a3a8e"/>
  <rect x="26" y="48" width="2" height="20" fill="#3a3a8e"/>
  <rect x="2" y="50" width="10" height="6" fill="#fff" opacity="0.06"/>

  <!-- Arms -->
  <rect x="-20" y="48" width="20" height="52" fill="#2a2a6e"/>
  <rect x="48" y="48" width="20" height="52" fill="#2a2a6e"/>
  <!-- Hands (skin) -->
  <rect x="-20" y="90" width="20" height="10" fill="#c8a078"/>
  <rect x="48" y="90" width="20" height="10" fill="#c8a078"/>

  <!-- Legs -->
  <rect x="0" y="104" width="22" height="52" fill="#333348"/>
  <rect x="26" y="104" width="22" height="52" fill="#333d52"/>

  <!-- Shoes -->
  <rect x="-2" y="148" width="24" height="8" fill="#555577"/>
  <rect x="26" y="148" width="24" height="8" fill="#555577"/>
</g>

<!-- ===== CRAFTING AREA (top right) ===== -->
<!-- "Crafting" label -->
<text x="540" y="58" class="mc" font-size="12" fill="#3f3f3f">Crafting</text>
<text x="539" y="57" class="mc" font-size="12" fill="#404040">Crafting</text>

<!-- 2x2 crafting grid -->
<use href="#s" x="530" y="68"/>
<use href="#s" x="572" y="68"/>
<use href="#s" x="530" y="110"/>
<use href="#s" x="572" y="110"/>

<!-- Crafting items: Go + Docker + PostgreSQL + Redis -->
<!-- Go (diamond) -->
<g transform="translate(536,74)">
  <polygon points="14,1 27,14 14,27 1,14" fill="#00add8"/>
  <polygon points="14,1 27,14 14,14" fill="#008faa" opacity="0.8"/>
  <polygon points="1,14 14,14 14,27" fill="#008faa" opacity="0.6"/>
</g>
<!-- Docker (block) -->
<g transform="translate(578,74)">
  <rect x="2" y="2" width="24" height="24" fill="#2496ed"/>
  <rect x="2" y="2" width="24" height="7" fill="#fff" opacity="0.15"/>
  <rect x="2" y="2" width="7" height="24" fill="#fff" opacity="0.08"/>
</g>
<!-- PostgreSQL (block) -->
<g transform="translate(536,116)">
  <rect x="2" y="2" width="24" height="24" fill="#336791"/>
  <rect x="2" y="2" width="24" height="7" fill="#fff" opacity="0.15"/>
  <rect x="2" y="2" width="7" height="24" fill="#fff" opacity="0.08"/>
</g>
<!-- Redis (gem) -->
<g transform="translate(578,116)">
  <polygon points="14,2 25,10 21,26 7,26 3,10" fill="#dc382d"/>
  <polygon points="14,2 25,10 14,10" fill="#fff" opacity="0.15"/>
</g>

<!-- Crafting arrow -->
<g transform="translate(628,96)" class="arrow-anim">
  <rect x="0" y="6" width="22" height="4" fill="#8b8b8b"/>
  <polygon points="22,0 34,8 22,16" fill="#8b8b8b"/>
  <rect x="0" y="6" width="22" height="2" fill="#c6c6c6"/>
</g>

<!-- Output slot -->
<use href="#s" x="675" y="88"/>
<!-- Output: Enchanted Book (Distributed Systems) -->
<g transform="translate(681,94)">
  <rect x="4" y="2" width="20" height="24" rx="1" fill="#8b6943"/>
  <rect x="6" y="4" width="16" height="20" fill="#f0e6d0"/>
  <line x1="14" y1="4" x2="14" y2="24" stroke="#8b6943" stroke-width="1"/>
  <rect x="3" y="1" width="22" height="26" rx="1" fill="#44ddee" opacity="0.3" class="enchanted"/>
</g>

<!-- Player info (right of character) -->
<text x="310" y="95" class="mc" font-size="11" fill="#3f3f3f">Class: Developer</text>
<text x="309" y="94" class="mc" font-size="11" fill="#404040">Class: Developer</text>

<text x="310" y="113" class="mc" font-size="11" fill="#3f3f3f">Level: 42</text>
<text x="309" y="112" class="mc" font-size="11" fill="#55ff55">Level: 42</text>

<text x="310" y="131" class="mc" font-size="11" fill="#3f3f3f">Region: India</text>
<text x="309" y="130" class="mc" font-size="11" fill="#404040">Region: India</text>

<text x="310" y="149" class="mc" font-size="11" fill="#3f3f3f">XP: 4,599</text>
<text x="309" y="148" class="mc" font-size="11" fill="#aaffaa">XP: 4,599</text>

<text x="310" y="173" class="mc" font-size="10" fill="#3f3f3f">Focus: Go + Distributed</text>
<text x="309" y="172" class="mc" font-size="10" fill="#ffff55">Focus: Go + Distributed</text>
<text x="310" y="188" class="mc" font-size="10" fill="#3f3f3f">Systems</text>
<text x="309" y="187" class="mc" font-size="10" fill="#ffff55">Systems</text>

<!-- ===== INVENTORY SECTION ===== -->

<!-- "Inventory" label -->
<text x="243" y="268" class="mc" font-size="12" fill="#3f3f3f">Inventory</text>
<text x="242" y="267" class="mc" font-size="12" fill="#404040">Inventory</text>

<!-- Inventory grid: 9x3, slots at 40x40, gap 2px -->
<!-- Row 1 -->
<use href="#s" x="240" y="278"/><use href="#s" x="282" y="278"/><use href="#s" x="324" y="278"/><use href="#s" x="366" y="278"/><use href="#s" x="408" y="278"/><use href="#s" x="450" y="278"/><use href="#s" x="492" y="278"/><use href="#s" x="534" y="278"/><use href="#s" x="576" y="278"/>
<!-- Row 2 -->
<use href="#s" x="240" y="320"/><use href="#s" x="282" y="320"/><use href="#s" x="324" y="320"/><use href="#s" x="366" y="320"/><use href="#s" x="408" y="320"/><use href="#s" x="450" y="320"/><use href="#s" x="492" y="320"/><use href="#s" x="534" y="320"/><use href="#s" x="576" y="320"/>
<!-- Row 3 -->
<use href="#s" x="240" y="362"/><use href="#s" x="282" y="362"/><use href="#s" x="324" y="362"/><use href="#s" x="366" y="362"/><use href="#s" x="408" y="362"/><use href="#s" x="450" y="362"/><use href="#s" x="492" y="362"/><use href="#s" x="534" y="362"/><use href="#s" x="576" y="362"/>

<!-- INVENTORY ITEMS (colored blocks with labels) -->

<!-- Row 1: Languages & Frontend -->
<!-- JavaScript (yellow ingot) -->
<g transform="translate(246,284)"><rect x="1" y="9" width="26" height="12" rx="1" fill="#f7df1e"/><rect x="3" y="11" width="8" height="4" fill="#fff" opacity="0.2"/><text x="14" y="30" class="mc" font-size="7" fill="#3f3f00" text-anchor="middle">JS</text></g>
<!-- C/C++ (gray sword) -->
<g transform="translate(288,284)"><rect x="13" y="1" width="4" height="16" fill="#aaaacc"/><rect x="13" y="1" width="4" height="4" fill="#fff" opacity="0.3"/><rect x="8" y="17" width="14" height="3" fill="#8b6943"/><rect x="11" y="20" width="8" height="5" fill="#5a3a23"/></g>
<!-- Node.js (green gem) -->
<g transform="translate(330,284)"><polygon points="14,2 25,10 21,26 7,26 3,10" fill="#339933"/><polygon points="14,2 25,10 14,10" fill="#fff" opacity="0.15"/></g>
<!-- Next.js (dark orb) -->
<g transform="translate(372,284)"><circle cx="14" cy="14" r="12" fill="#111111" stroke="#555" stroke-width="1"/><circle cx="10" cy="10" r="4" fill="#ffffff" opacity="0.2"/></g>
<!-- React Native (cyan book) -->
<g transform="translate(414,284)"><rect x="4" y="2" width="20" height="24" rx="1" fill="#61dafb"/><rect x="6" y="4" width="16" height="20" fill="#f0e6d0"/><line x1="14" y1="4" x2="14" y2="24" stroke="#61dafb" stroke-width="1"/></g>
<!-- Three.js (purple gem) -->
<g transform="translate(456,284)"><polygon points="14,2 25,10 21,26 7,26 3,10" fill="#000000"/><polygon points="14,2 25,10 14,10" fill="#ffffff" opacity="0.2"/></g>
<!-- Vite (purple diamond) -->
<g transform="translate(498,284)"><polygon points="14,1 27,14 14,27 1,14" fill="#646cff"/><polygon points="14,1 27,14 14,14" fill="#8888ff" opacity="0.5"/></g>
<!-- Bun (tan orb) -->
<g transform="translate(540,284)"><circle cx="14" cy="14" r="12" fill="#fbf0df" stroke="#e0c9a0" stroke-width="1"/><circle cx="10" cy="10" r="3" fill="#fff" opacity="0.3"/></g>
<!-- REST API (green book) -->
<g transform="translate(582,284)"><rect x="4" y="2" width="20" height="24" rx="1" fill="#44bb44"/><rect x="6" y="4" width="16" height="20" fill="#f0e6d0"/><line x1="14" y1="4" x2="14" y2="24" stroke="#44bb44" stroke-width="1"/></g>

<!-- Row 2: Databases & Tools -->
<!-- MySQL (orange potion) -->
<g transform="translate(246,326)"><rect x="10" y="1" width="8" height="5" fill="#c0c0c0"/><rect x="6" y="6" width="16" height="20" rx="3" fill="#4479a1"/><rect x="8" y="8" width="4" height="4" fill="#fff" opacity="0.2"/></g>
<!-- CockroachDB (purple block) -->
<g transform="translate(288,326)"><rect x="2" y="2" width="24" height="24" fill="#6933ff"/><rect x="2" y="2" width="24" height="7" fill="#fff" opacity="0.15"/></g>
<!-- Socket.io (white orb) -->
<g transform="translate(330,326)"><circle cx="14" cy="14" r="12" fill="#222222" stroke="#555" stroke-width="1"/><circle cx="14" cy="14" r="5" fill="#ffffff"/></g>
<!-- Microservices (blue gem) -->
<g transform="translate(372,326)"><polygon points="14,2 25,10 21,26 7,26 3,10" fill="#4488ff"/><polygon points="14,2 25,10 14,10" fill="#fff" opacity="0.15"/></g>
<!-- Dist Systems (purple block) -->
<g transform="translate(414,326)"><rect x="2" y="2" width="24" height="24" fill="#6644aa"/><rect x="2" y="2" width="24" height="7" fill="#fff" opacity="0.15"/></g>
<!-- System Design (gold book) -->
<g transform="translate(456,326)"><rect x="4" y="2" width="20" height="24" rx="1" fill="#daa520"/><rect x="6" y="4" width="16" height="20" fill="#f0e6d0"/><line x1="14" y1="4" x2="14" y2="24" stroke="#daa520" stroke-width="1"/></g>
<!-- Bash (green sword) -->
<g transform="translate(498,326)"><rect x="13" y="1" width="4" height="16" fill="#4eaa25"/><rect x="13" y="1" width="4" height="4" fill="#fff" opacity="0.3"/><rect x="8" y="17" width="14" height="3" fill="#8b6943"/><rect x="11" y="20" width="8" height="5" fill="#5a3a23"/></g>
<!-- VS Code (blue diamond) -->
<g transform="translate(540,326)"><polygon points="14,1 27,14 14,27 1,14" fill="#007acc"/><polygon points="14,1 27,14 14,14" fill="#33aaee" opacity="0.4"/></g>
<!-- CSS (blue ingot) -->
<g transform="translate(582,326)"><rect x="1" y="9" width="26" height="12" rx="1" fill="#264de4"/><rect x="3" y="11" width="8" height="4" fill="#fff" opacity="0.2"/></g>

<!-- Row 3: Special items + empty -->
<!-- Enchanted Golden Apple -->
<g transform="translate(246,368)"><circle cx="14" cy="14" r="11" fill="#ffd700"/><circle cx="10" cy="10" r="4" fill="#fff" opacity="0.3"/><rect x="2" y="2" width="24" height="24" rx="12" fill="#cc77ff" opacity="0.25" class="enchanted"/></g>
<!-- Book & Quill -->
<g transform="translate(288,368)"><rect x="4" y="2" width="20" height="24" rx="1" fill="#8b6943"/><rect x="6" y="4" width="16" height="20" fill="#f0e6d0"/><rect x="18" y="0" width="3" height="8" fill="#111" transform="rotate(15,20,4)"/></g>
<!-- Map -->
<g transform="translate(330,368)"><rect x="3" y="3" width="22" height="22" fill="#e8dcc0"/><rect x="5" y="5" width="18" height="18" fill="#d4c8a0"/><rect x="8" y="8" width="4" height="8" fill="#5a8a3a" opacity="0.5"/><rect x="14" y="10" width="6" height="6" fill="#7aaa5a" opacity="0.5"/></g>
<!-- Slots 4-9: empty -->

<!-- Stack counts (MC shadow style: dark at +1,+1 then white) -->
<!-- Row 1 counts -->
<text x="272" y="312" class="mc" font-size="9" fill="#3f3f3f">85</text><text x="271" y="311" class="mc" font-size="9" fill="#fff">85</text>
<text x="314" y="312" class="mc" font-size="9" fill="#3f3f3f">40</text><text x="313" y="311" class="mc" font-size="9" fill="#fff">40</text>
<text x="356" y="312" class="mc" font-size="9" fill="#3f3f3f">70</text><text x="355" y="311" class="mc" font-size="9" fill="#fff">70</text>
<text x="398" y="312" class="mc" font-size="9" fill="#3f3f3f">75</text><text x="397" y="311" class="mc" font-size="9" fill="#fff">75</text>
<text x="440" y="312" class="mc" font-size="9" fill="#3f3f3f">60</text><text x="439" y="311" class="mc" font-size="9" fill="#fff">60</text>
<text x="482" y="312" class="mc" font-size="9" fill="#3f3f3f">40</text><text x="481" y="311" class="mc" font-size="9" fill="#fff">40</text>
<text x="524" y="312" class="mc" font-size="9" fill="#3f3f3f">50</text><text x="523" y="311" class="mc" font-size="9" fill="#fff">50</text>
<text x="566" y="312" class="mc" font-size="9" fill="#3f3f3f">30</text><text x="565" y="311" class="mc" font-size="9" fill="#fff">30</text>
<text x="608" y="312" class="mc" font-size="9" fill="#3f3f3f">70</text><text x="607" y="311" class="mc" font-size="9" fill="#fff">70</text>
<!-- Row 2 counts -->
<text x="272" y="354" class="mc" font-size="9" fill="#3f3f3f">55</text><text x="271" y="353" class="mc" font-size="9" fill="#fff">55</text>
<text x="314" y="354" class="mc" font-size="9" fill="#3f3f3f">30</text><text x="313" y="353" class="mc" font-size="9" fill="#fff">30</text>
<text x="356" y="354" class="mc" font-size="9" fill="#3f3f3f">45</text><text x="355" y="353" class="mc" font-size="9" fill="#fff">45</text>
<text x="398" y="354" class="mc" font-size="9" fill="#3f3f3f">50</text><text x="397" y="353" class="mc" font-size="9" fill="#fff">50</text>
<text x="440" y="354" class="mc" font-size="9" fill="#3f3f3f">40</text><text x="439" y="353" class="mc" font-size="9" fill="#fff">40</text>
<text x="482" y="354" class="mc" font-size="9" fill="#3f3f3f">45</text><text x="481" y="353" class="mc" font-size="9" fill="#fff">45</text>
<text x="524" y="354" class="mc" font-size="9" fill="#3f3f3f">60</text><text x="523" y="353" class="mc" font-size="9" fill="#fff">60</text>
<text x="566" y="354" class="mc" font-size="9" fill="#3f3f3f">90</text><text x="565" y="353" class="mc" font-size="9" fill="#fff">90</text>
<text x="608" y="354" class="mc" font-size="9" fill="#3f3f3f">70</text><text x="607" y="353" class="mc" font-size="9" fill="#fff">70</text>
<!-- Row 3 counts -->
<text x="272" y="396" class="mc" font-size="9" fill="#3f3f3f">1</text><text x="271" y="395" class="mc" font-size="9" fill="#fff">1</text>
<text x="314" y="396" class="mc" font-size="9" fill="#3f3f3f">1</text><text x="313" y="395" class="mc" font-size="9" fill="#fff">1</text>
<text x="356" y="396" class="mc" font-size="9" fill="#3f3f3f">1</text><text x="355" y="395" class="mc" font-size="9" fill="#fff">1</text>

<!-- ===== HOTBAR ===== -->

<!-- Separator line -->
<line x1="240" y1="412" x2="616" y2="412" stroke="#8b8b8b" stroke-width="1"/>

<!-- Hotbar slots: slot 1 is selected -->
<use href="#ss" x="240" y="422"/>
<use href="#s" x="282" y="422"/><use href="#s" x="324" y="422"/><use href="#s" x="366" y="422"/><use href="#s" x="408" y="422"/><use href="#s" x="450" y="422"/><use href="#s" x="492" y="422"/><use href="#s" x="534" y="422"/><use href="#s" x="576" y="422"/>

<!-- Hotbar items -->
<!-- 1: Go (diamond, SELECTED) -->
<g transform="translate(246,428)"><polygon points="14,1 27,14 14,27 1,14" fill="#00add8"/><polygon points="14,1 27,14 14,14" fill="#008faa" opacity="0.7"/><polygon points="1,14 14,14 14,27" fill="#008faa" opacity="0.5"/></g>
<!-- 2: TypeScript (ingot) -->
<g transform="translate(288,428)"><rect x="1" y="9" width="26" height="12" rx="1" fill="#3178c6"/><rect x="3" y="11" width="8" height="4" fill="#fff" opacity="0.2"/></g>
<!-- 3: Java (potion) -->
<g transform="translate(330,428)"><rect x="10" y="1" width="8" height="5" fill="#c0c0c0"/><rect x="6" y="6" width="16" height="20" rx="3" fill="#ed8b00"/><rect x="8" y="8" width="4" height="4" fill="#fff" opacity="0.2"/></g>
<!-- 4: React (orb) -->
<g transform="translate(372,428)"><circle cx="14" cy="14" r="12" fill="#61dafb"/><circle cx="10" cy="10" r="4" fill="#fff" opacity="0.3"/></g>
<!-- 5: PostgreSQL (block) -->
<g transform="translate(414,428)"><rect x="2" y="2" width="24" height="24" fill="#336791"/><rect x="2" y="2" width="24" height="7" fill="#fff" opacity="0.15"/><rect x="2" y="2" width="7" height="24" fill="#fff" opacity="0.08"/></g>
<!-- 6: Redis (gem) -->
<g transform="translate(456,428)"><polygon points="14,2 25,10 21,26 7,26 3,10" fill="#dc382d"/><polygon points="14,2 25,10 14,10" fill="#fff" opacity="0.15"/></g>
<!-- 7: Docker (block) -->
<g transform="translate(498,428)"><rect x="2" y="2" width="24" height="24" fill="#2496ed"/><rect x="2" y="2" width="24" height="7" fill="#fff" opacity="0.15"/><rect x="2" y="2" width="7" height="24" fill="#fff" opacity="0.08"/></g>
<!-- 8: Git (pickaxe) -->
<g transform="translate(540,428)"><rect x="13" y="12" width="3" height="14" fill="#8b6943"/><rect x="5" y="3" width="18" height="4" fill="#f05032"/><rect x="5" y="3" width="4" height="11" fill="#f05032"/><rect x="19" y="3" width="4" height="11" fill="#f05032"/></g>
<!-- 9: Linux (block) -->
<g transform="translate(582,428)"><rect x="2" y="2" width="24" height="24" fill="#fcc624"/><rect x="2" y="2" width="24" height="7" fill="#fff" opacity="0.15"/><rect x="2" y="2" width="7" height="24" fill="#fff" opacity="0.08"/></g>

<!-- Hotbar stack counts -->
<text x="272" y="456" class="mc" font-size="9" fill="#3f3f3f">64</text><text x="271" y="455" class="mc" font-size="9" fill="#fff">64</text>
<text x="314" y="456" class="mc" font-size="9" fill="#3f3f3f">85</text><text x="313" y="455" class="mc" font-size="9" fill="#fff">85</text>
<text x="356" y="456" class="mc" font-size="9" fill="#3f3f3f">50</text><text x="355" y="455" class="mc" font-size="9" fill="#fff">50</text>
<text x="398" y="456" class="mc" font-size="9" fill="#3f3f3f">75</text><text x="397" y="455" class="mc" font-size="9" fill="#fff">75</text>
<text x="440" y="456" class="mc" font-size="9" fill="#3f3f3f">55</text><text x="439" y="455" class="mc" font-size="9" fill="#fff">55</text>
<text x="482" y="456" class="mc" font-size="9" fill="#3f3f3f">45</text><text x="481" y="455" class="mc" font-size="9" fill="#fff">45</text>
<text x="524" y="456" class="mc" font-size="9" fill="#3f3f3f">50</text><text x="523" y="455" class="mc" font-size="9" fill="#fff">50</text>
<text x="566" y="456" class="mc" font-size="9" fill="#3f3f3f">80</text><text x="565" y="455" class="mc" font-size="9" fill="#fff">80</text>
<text x="608" y="456" class="mc" font-size="9" fill="#3f3f3f">60</text><text x="607" y="455" class="mc" font-size="9" fill="#fff">60</text>

<!-- ===== HEARTS & HUNGER ===== -->

<!-- Hearts (10 full hearts) -->
<g transform="translate(240, 478)">
  <!-- Heart shape repeated 10 times -->
  <g transform="translate(0,0)"><polygon points="2,4 4,2 6,2 7,4 8,2 10,2 12,4 12,7 7,12 2,7" fill="#aa0000"/><polygon points="2,4 4,2 6,2 7,4 8,2 10,2 12,4 12,7 7,12 2,7" fill="#ff2222" transform="translate(0,-1)"/><rect x="3" y="2" width="3" height="2" fill="#ff8888" opacity="0.5" transform="translate(0,-1)"/></g>
  <g transform="translate(14,0)"><polygon points="2,4 4,2 6,2 7,4 8,2 10,2 12,4 12,7 7,12 2,7" fill="#aa0000"/><polygon points="2,4 4,2 6,2 7,4 8,2 10,2 12,4 12,7 7,12 2,7" fill="#ff2222" transform="translate(0,-1)"/></g>
  <g transform="translate(28,0)"><polygon points="2,4 4,2 6,2 7,4 8,2 10,2 12,4 12,7 7,12 2,7" fill="#aa0000"/><polygon points="2,4 4,2 6,2 7,4 8,2 10,2 12,4 12,7 7,12 2,7" fill="#ff2222" transform="translate(0,-1)"/></g>
  <g transform="translate(42,0)"><polygon points="2,4 4,2 6,2 7,4 8,2 10,2 12,4 12,7 7,12 2,7" fill="#aa0000"/><polygon points="2,4 4,2 6,2 7,4 8,2 10,2 12,4 12,7 7,12 2,7" fill="#ff2222" transform="translate(0,-1)"/></g>
  <g transform="translate(56,0)"><polygon points="2,4 4,2 6,2 7,4 8,2 10,2 12,4 12,7 7,12 2,7" fill="#aa0000"/><polygon points="2,4 4,2 6,2 7,4 8,2 10,2 12,4 12,7 7,12 2,7" fill="#ff2222" transform="translate(0,-1)"/></g>
  <g transform="translate(70,0)"><polygon points="2,4 4,2 6,2 7,4 8,2 10,2 12,4 12,7 7,12 2,7" fill="#aa0000"/><polygon points="2,4 4,2 6,2 7,4 8,2 10,2 12,4 12,7 7,12 2,7" fill="#ff2222" transform="translate(0,-1)"/></g>
  <g transform="translate(84,0)"><polygon points="2,4 4,2 6,2 7,4 8,2 10,2 12,4 12,7 7,12 2,7" fill="#aa0000"/><polygon points="2,4 4,2 6,2 7,4 8,2 10,2 12,4 12,7 7,12 2,7" fill="#ff2222" transform="translate(0,-1)"/></g>
  <g transform="translate(98,0)"><polygon points="2,4 4,2 6,2 7,4 8,2 10,2 12,4 12,7 7,12 2,7" fill="#aa0000"/><polygon points="2,4 4,2 6,2 7,4 8,2 10,2 12,4 12,7 7,12 2,7" fill="#ff2222" transform="translate(0,-1)"/></g>
  <g transform="translate(112,0)"><polygon points="2,4 4,2 6,2 7,4 8,2 10,2 12,4 12,7 7,12 2,7" fill="#aa0000"/><polygon points="2,4 4,2 6,2 7,4 8,2 10,2 12,4 12,7 7,12 2,7" fill="#ff2222" transform="translate(0,-1)"/></g>
  <g transform="translate(126,0)"><polygon points="2,4 4,2 6,2 7,4 8,2 10,2 12,4 12,7 7,12 2,7" fill="#aa0000"/><polygon points="2,4 4,2 6,2 7,4 8,2 10,2 12,4 12,7 7,12 2,7" fill="#ff2222" transform="translate(0,-1)"/></g>
</g>

<!-- Hunger (drumsticks, right-aligned) -->
<g transform="translate(476, 478)">
  <g transform="translate(0,0)"><ellipse cx="7" cy="8" rx="5" ry="6" fill="#8b5a2b"/><rect x="9" y="0" width="4" height="7" rx="1" fill="#d4a060"/></g>
  <g transform="translate(14,0)"><ellipse cx="7" cy="8" rx="5" ry="6" fill="#8b5a2b"/><rect x="9" y="0" width="4" height="7" rx="1" fill="#d4a060"/></g>
  <g transform="translate(28,0)"><ellipse cx="7" cy="8" rx="5" ry="6" fill="#8b5a2b"/><rect x="9" y="0" width="4" height="7" rx="1" fill="#d4a060"/></g>
  <g transform="translate(42,0)"><ellipse cx="7" cy="8" rx="5" ry="6" fill="#8b5a2b"/><rect x="9" y="0" width="4" height="7" rx="1" fill="#d4a060"/></g>
  <g transform="translate(56,0)"><ellipse cx="7" cy="8" rx="5" ry="6" fill="#8b5a2b"/><rect x="9" y="0" width="4" height="7" rx="1" fill="#d4a060"/></g>
  <g transform="translate(70,0)"><ellipse cx="7" cy="8" rx="5" ry="6" fill="#8b5a2b"/><rect x="9" y="0" width="4" height="7" rx="1" fill="#d4a060"/></g>
  <g transform="translate(84,0)"><ellipse cx="7" cy="8" rx="5" ry="6" fill="#8b5a2b"/><rect x="9" y="0" width="4" height="7" rx="1" fill="#d4a060"/></g>
  <g transform="translate(98,0)"><ellipse cx="7" cy="8" rx="5" ry="6" fill="#8b5a2b"/><rect x="9" y="0" width="4" height="7" rx="1" fill="#d4a060"/></g>
  <g transform="translate(112,0)"><ellipse cx="7" cy="8" rx="5" ry="6" fill="#8b5a2b"/><rect x="9" y="0" width="4" height="7" rx="1" fill="#d4a060"/></g>
  <g transform="translate(126,0)"><ellipse cx="7" cy="8" rx="5" ry="6" fill="#8b5a2b"/><rect x="9" y="0" width="4" height="7" rx="1" fill="#d4a060"/></g>
</g>

<!-- ===== XP BAR ===== -->
<rect x="240" y="500" width="376" height="6" fill="#222222" stroke="#111" stroke-width="1"/>
<rect x="241" y="501" width="338" height="4" fill="#80ff20"/>
<rect x="241" y="501" width="338" height="2" fill="#a0ff50" opacity="0.4"/>

<!-- Level number (MC shadow text) -->
<text x="429" y="510" class="mc" font-size="11" fill="#000000" text-anchor="middle" font-weight="bold">42</text>
<text x="428" y="509" class="mc" font-size="11" fill="#80ff20" text-anchor="middle" font-weight="bold">42</text>

<!-- ===== TOOLTIP (hovering text, MC style) ===== -->
<g transform="translate(548, 200)">
  <rect x="0" y="0" width="195" height="48" rx="0" fill="#100010" stroke="#2090b0" stroke-width="2" opacity="0.94"/>
  <rect x="1" y="1" width="193" height="46" fill="#100010" opacity="0.94"/>
  <text x="8" y="16" class="mc" font-size="10" fill="#3f3f3f">Distributed Systems</text>
  <text x="7" y="15" class="mc" font-size="10" fill="#55ffff">Distributed Systems</text>
  <text x="8" y="32" class="mc" font-size="9" fill="#3f3f3f">Go + Docker + PG + Redis</text>
  <text x="7" y="31" class="mc" font-size="9" fill="#555555">Go + Docker + PG + Redis</text>
  <text x="8" y="44" class="mc" font-size="9" fill="#3f3f3f">Exploring</text>
  <text x="7" y="43" class="mc" font-size="9" fill="#55ff55">Exploring</text>
</g>

</svg>
