<svg xmlns="http://www.w3.org/2000/svg" viewBox="0 0 860 480" width="860" height="480">
<defs>
<style>
@keyframes blink {
  0%, 100% { opacity: 1; }
  50% { opacity: 0.4; }
}
.blink { animation: blink 2s ease-in-out infinite; }
text { font-family: 'Courier New', monospace; font-size: 12px; }
</style>
</defs>
<rect width="860" height="480" fill="#1a1a1a"/>



<rect x="8" y="8" width="300" height="14" fill="#000000" opacity="0.6" rx="1" shape-rendering="crispEdges"/>
<text x="11" y="20" fill="#3f3f3f" font-family="'Courier New', monospace" font-size="12">Minecraft 1.21.4 (github.com/sanki92)</text>
<text x="10" y="19" fill="#ffffff" font-family="'Courier New', monospace" font-size="12">Minecraft 1.21.4 (github.com/sanki92)</text>


<rect x="8" y="24" width="300" height="14" fill="#000000" opacity="0.6" rx="1" shape-rendering="crispEdges"/>
<text x="11" y="36" fill="#3f3f3f" font-family="'Courier New', monospace" font-size="12">Sankalp Tripathi -- Developer Profile</text>
<text x="10" y="35" fill="#ffffff" font-family="'Courier New', monospace" font-size="12">Sankalp Tripathi -- Developer Profile</text>


<rect x="8" y="56" width="244" height="14" fill="#000000" opacity="0.6" rx="1" shape-rendering="crispEdges"/>
<text x="11" y="68" fill="#3f3f3f" font-family="'Courier New', monospace" font-size="12">XYZ: 20.462 / 64.000 / -12.830</text>
<text x="10" y="67" fill="#ffffff" font-family="'Courier New', monospace" font-size="12">XYZ: 20.462 / 64.000 / -12.830</text>


<rect x="8" y="72" width="132" height="14" fill="#000000" opacity="0.6" rx="1" shape-rendering="crispEdges"/>
<text x="11" y="84" fill="#3f3f3f" font-family="'Courier New', monospace" font-size="12">Block: 20 64 -12</text>
<text x="10" y="83" fill="#ffffff" font-family="'Courier New', monospace" font-size="12">Block: 20 64 -12</text>


<rect x="8" y="88" width="164" height="14" fill="#000000" opacity="0.6" rx="1" shape-rendering="crispEdges"/>
<text x="11" y="100" fill="#3f3f3f" font-family="'Courier New', monospace" font-size="12">Chunk: 1 4 -1 in 0 0</text>
<text x="10" y="99" fill="#ffffff" font-family="'Courier New', monospace" font-size="12">Chunk: 1 4 -1 in 0 0</text>


<rect x="8" y="104" width="348" height="14" fill="#000000" opacity="0.6" rx="1" shape-rendering="crispEdges"/>
<text x="11" y="116" fill="#3f3f3f" font-family="'Courier New', monospace" font-size="12">Facing: north (Towards distributed systems)</text>
<text x="10" y="115" fill="#ffffff" font-family="'Courier New', monospace" font-size="12">Facing: north (Towards distributed systems)</text>


<rect x="8" y="136" width="132" height="14" fill="#000000" opacity="0.6" rx="1" shape-rendering="crispEdges"/>
<text x="11" y="148" fill="#3f3f3f" font-family="'Courier New', monospace" font-size="12">Client Repos: 65</text>
<text x="10" y="147" fill="#ffffff" font-family="'Courier New', monospace" font-size="12">Client Repos: 65</text>


<rect x="8" y="152" width="180" height="14" fill="#000000" opacity="0.6" rx="1" shape-rendering="crispEdges"/>
<text x="11" y="164" fill="#3f3f3f" font-family="'Courier New', monospace" font-size="12">Active Chunks: 9 of 65</text>
<text x="10" y="163" fill="#ffffff" font-family="'Courier New', monospace" font-size="12">Active Chunks: 9 of 65</text>


<rect x="8" y="168" width="148" height="14" fill="#000000" opacity="0.6" rx="1" shape-rendering="crispEdges"/>
<text x="11" y="180" fill="#3f3f3f" font-family="'Courier New', monospace" font-size="12">Stars Collected: 3</text>
<text x="10" y="179" fill="#ffffff" font-family="'Courier New', monospace" font-size="12">Stars Collected: 3</text>


<rect x="8" y="184" width="140" height="14" fill="#000000" opacity="0.6" rx="1" shape-rendering="crispEdges"/>
<text x="11" y="196" fill="#3f3f3f" font-family="'Courier New', monospace" font-size="12">Forks Deployed: 2</text>
<text x="10" y="195" fill="#ffffff" font-family="'Courier New', monospace" font-size="12">Forks Deployed: 2</text>


<rect x="8" y="200" width="180" height="14" fill="#000000" opacity="0.6" rx="1" shape-rendering="crispEdges"/>
<text x="11" y="212" fill="#3f3f3f" font-family="'Courier New', monospace" font-size="12">Allies (Followers): 15</text>
<text x="10" y="211" fill="#ffffff" font-family="'Courier New', monospace" font-size="12">Allies (Followers): 15</text>


<rect x="8" y="216" width="108" height="14" fill="#000000" opacity="0.6" rx="1" shape-rendering="crispEdges"/>
<text x="11" y="228" fill="#3f3f3f" font-family="'Courier New', monospace" font-size="12">Following: 13</text>
<text x="10" y="227" fill="#ffffff" font-family="'Courier New', monospace" font-size="12">Following: 13</text>


<rect x="8" y="248" width="284" height="14" fill="#000000" opacity="0.6" rx="1" shape-rendering="crispEdges"/>
<text x="11" y="260" fill="#3f3f3f" font-family="'Courier New', monospace" font-size="12">Biome: minecraft:open_source_forest</text>
<text x="10" y="259" fill="#ffffff" font-family="'Courier New', monospace" font-size="12">Biome: minecraft:open_source_forest</text>


<rect x="8" y="264" width="140" height="14" fill="#000000" opacity="0.6" rx="1" shape-rendering="crispEdges"/>
<text x="11" y="276" fill="#3f3f3f" font-family="'Courier New', monospace" font-size="12">Days Played: 2038</text>
<text x="10" y="275" fill="#ffffff" font-family="'Courier New', monospace" font-size="12">Days Played: 2038</text>


<rect x="8" y="280" width="100" height="14" fill="#000000" opacity="0.6" rx="1" shape-rendering="crispEdges"/>
<text x="11" y="292" fill="#3f3f3f" font-family="'Courier New', monospace" font-size="12">XP Level: 50</text>
<text x="10" y="291" fill="#ffffff" font-family="'Courier New', monospace" font-size="12">XP Level: 50</text>


<rect x="8" y="296" width="108" height="14" fill="#000000" opacity="0.6" rx="1" shape-rendering="crispEdges"/>
<text x="11" y="308" fill="#3f3f3f" font-family="'Courier New', monospace" font-size="12">Total XP: 100</text>
<text x="10" y="307" fill="#ffffff" font-family="'Courier New', monospace" font-size="12">Total XP: 100</text>


<rect x="8" y="328" width="340" height="14" fill="#000000" opacity="0.6" rx="1" shape-rendering="crispEdges"/>
<text x="11" y="340" fill="#3f3f3f" font-family="'Courier New', monospace" font-size="12">Current Quest: Distributed Systems Mastery</text>
<text x="10" y="339" fill="#ffffff" font-family="'Courier New', monospace" font-size="12" class="blink">Current Quest: Distributed Systems Mastery</text>



<rect x="700" y="8" width="148" height="14" fill="#000000" opacity="0.6" rx="1" shape-rendering="crispEdges"/>
<text x="703" y="20" fill="#3f3f3f" font-family="'Courier New', monospace" font-size="12" text-anchor="start">Java: 21.0.3 64bit</text>
<text x="702" y="19" fill="#ffffff" font-family="'Courier New', monospace" font-size="12" text-anchor="start">Java: 21.0.3 64bit</text>


<rect x="668" y="24" width="180" height="14" fill="#000000" opacity="0.6" rx="1" shape-rendering="crispEdges"/>
<text x="671" y="36" fill="#3f3f3f" font-family="'Courier New', monospace" font-size="12" text-anchor="start">Mem: 10% 1337/12775 KB</text>
<text x="670" y="35" fill="#ffffff" font-family="'Courier New', monospace" font-size="12" text-anchor="start">Mem: 10% 1337/12775 KB</text>


<rect x="676" y="40" width="172" height="14" fill="#000000" opacity="0.6" rx="1" shape-rendering="crispEdges"/>
<text x="679" y="52" fill="#3f3f3f" font-family="'Courier New', monospace" font-size="12" text-anchor="start">Allocated: 8143377 KB</text>
<text x="678" y="51" fill="#ffffff" font-family="'Courier New', monospace" font-size="12" text-anchor="start">Allocated: 8143377 KB</text>


<rect x="636" y="72" width="212" height="14" fill="#000000" opacity="0.6" rx="1" shape-rendering="crispEdges"/>
<text x="639" y="84" fill="#3f3f3f" font-family="'Courier New', monospace" font-size="12" text-anchor="start">CPU: GitHub Actions Runner</text>
<text x="638" y="83" fill="#ffffff" font-family="'Courier New', monospace" font-size="12" text-anchor="start">CPU: GitHub Actions Runner</text>


<rect x="596" y="88" width="252" height="14" fill="#000000" opacity="0.6" rx="1" shape-rendering="crispEdges"/>
<text x="599" y="100" fill="#3f3f3f" font-family="'Courier New', monospace" font-size="12" text-anchor="start">Display: 1920x1080 (github.com)</text>
<text x="598" y="99" fill="#ffffff" font-family="'Courier New', monospace" font-size="12" text-anchor="start">Display: 1920x1080 (github.com)</text>


<rect x="636" y="104" width="212" height="14" fill="#000000" opacity="0.6" rx="1" shape-rendering="crispEdges"/>
<text x="639" y="116" fill="#3f3f3f" font-family="'Courier New', monospace" font-size="12" text-anchor="start">Server: github.com/sanki92</text>
<text x="638" y="115" fill="#ffffff" font-family="'Courier New', monospace" font-size="12" text-anchor="start">Server: github.com/sanki92</text>


<rect x="676" y="120" width="172" height="14" fill="#000000" opacity="0.6" rx="1" shape-rendering="crispEdges"/>
<text x="679" y="132" fill="#3f3f3f" font-family="'Courier New', monospace" font-size="12" text-anchor="start">Protocol: REST API v3</text>
<text x="678" y="131" fill="#ffffff" font-family="'Courier New', monospace" font-size="12" text-anchor="start">Protocol: REST API v3</text>


<rect x="732" y="152" width="116" height="14" fill="#000000" opacity="0.6" rx="1" shape-rendering="crispEdges"/>
<text x="735" y="164" fill="#3f3f3f" font-family="'Courier New', monospace" font-size="12" text-anchor="start">Top Processes:</text>
<text x="734" y="163" fill="#ffffff" font-family="'Courier New', monospace" font-size="12" text-anchor="start">Top Processes:</text>



<rect x="740" y="168" width="108" height="14" fill="#000000" opacity="0.6" rx="1" shape-rendering="crispEdges"/>
<text x="743" y="180" fill="#3f3f3f" font-family="'Courier New', monospace" font-size="12" text-anchor="start"> sanki92 [Go]</text>
<text x="742" y="179" fill="#ffffff" font-family="'Courier New', monospace" font-size="12" text-anchor="start"> sanki92 [Go]</text>



<rect x="740" y="184" width="108" height="14" fill="#000000" opacity="0.6" rx="1" shape-rendering="crispEdges"/>
<text x="743" y="196" fill="#3f3f3f" font-family="'Courier New', monospace" font-size="12" text-anchor="start"> envsync [Go]</text>
<text x="742" y="195" fill="#ffffff" font-family="'Courier New', monospace" font-size="12" text-anchor="start"> envsync [Go]</text>



<rect x="684" y="200" width="164" height="14" fill="#000000" opacity="0.6" rx="1" shape-rendering="crispEdges"/>
<text x="687" y="212" fill="#3f3f3f" font-family="'Courier New', monospace" font-size="12" text-anchor="start"> meteor [JavaScript]</text>
<text x="686" y="211" fill="#ffffff" font-family="'Courier New', monospace" font-size="12" text-anchor="start"> meteor [JavaScript]</text>



<rect x="628" y="216" width="220" height="14" fill="#000000" opacity="0.6" rx="1" shape-rendering="crispEdges"/>
<text x="631" y="228" fill="#3f3f3f" font-family="'Courier New', monospace" font-size="12" text-anchor="start"> vscode-cscout [TypeScript]</text>
<text x="630" y="227" fill="#ffffff" font-family="'Courier New', monospace" font-size="12" text-anchor="start"> vscode-cscout [TypeScript]</text>



<rect x="740" y="232" width="108" height="14" fill="#000000" opacity="0.6" rx="1" shape-rendering="crispEdges"/>
<text x="743" y="244" fill="#3f3f3f" font-family="'Courier New', monospace" font-size="12" text-anchor="start"> cscout [C&#43;&#43;]</text>
<text x="742" y="243" fill="#ffffff" font-family="'Courier New', monospace" font-size="12" text-anchor="start"> cscout [C&#43;&#43;]</text>




<rect x="628" y="264" width="220" height="14" fill="#000000" opacity="0.6" rx="1" shape-rendering="crispEdges"/>
<text x="631" y="276" fill="#3f3f3f" font-family="'Courier New', monospace" font-size="12" text-anchor="start">Targeted Block: main branch</text>
<text x="630" y="275" fill="#ffffff" font-family="'Courier New', monospace" font-size="12" text-anchor="start">Targeted Block: main branch</text>


<rect x="676" y="280" width="172" height="14" fill="#000000" opacity="0.6" rx="1" shape-rendering="crispEdges"/>
<text x="679" y="292" fill="#3f3f3f" font-family="'Courier New', monospace" font-size="12" text-anchor="start">Looking at: README.md</text>
<text x="678" y="291" fill="#ffffff" font-family="'Courier New', monospace" font-size="12" text-anchor="start">Looking at: README.md</text>



<g transform="translate(230, 400)">
<rect x="-2" y="-2" width="404" height="18" fill="#000000" opacity="0.6" rx="1" shape-rendering="crispEdges"/>

<rect x="0" y="0" width="148" height="14" fill="#3178c6" shape-rendering="crispEdges"/>

<rect x="148" y="0" width="144" height="14" fill="#f7df1e" shape-rendering="crispEdges"/>

<rect x="292" y="0" width="68" height="14" fill="#ed8b00" shape-rendering="crispEdges"/>

<rect x="360" y="0" width="32" height="14" fill="#00599c" shape-rendering="crispEdges"/>

<rect x="392" y="0" width="8" height="14" fill="#00add8" shape-rendering="crispEdges"/>

<rect x="400" y="0" width="0" height="14" fill="#3572a5" shape-rendering="crispEdges"/>

</g>
<g transform="translate(230, 430)">

<rect x="0" y="0" width="10" height="10" fill="#3178c6" shape-rendering="crispEdges"/>
<text x="14" y="9" fill="#3f3f3f" font-family="'Courier New', monospace" font-size="10">TypeScript</text>
<text x="13" y="8" fill="#ffffff" font-family="'Courier New', monospace" font-size="10">TypeScript</text>

<rect x="80" y="0" width="10" height="10" fill="#f7df1e" shape-rendering="crispEdges"/>
<text x="94" y="9" fill="#3f3f3f" font-family="'Courier New', monospace" font-size="10">JavaScript</text>
<text x="93" y="8" fill="#ffffff" font-family="'Courier New', monospace" font-size="10">JavaScript</text>

<rect x="160" y="0" width="10" height="10" fill="#ed8b00" shape-rendering="crispEdges"/>
<text x="174" y="9" fill="#3f3f3f" font-family="'Courier New', monospace" font-size="10">Java</text>
<text x="173" y="8" fill="#ffffff" font-family="'Courier New', monospace" font-size="10">Java</text>

<rect x="240" y="0" width="10" height="10" fill="#00599c" shape-rendering="crispEdges"/>
<text x="254" y="9" fill="#3f3f3f" font-family="'Courier New', monospace" font-size="10">C&#43;&#43;</text>
<text x="253" y="8" fill="#ffffff" font-family="'Courier New', monospace" font-size="10">C&#43;&#43;</text>

<rect x="320" y="0" width="10" height="10" fill="#00add8" shape-rendering="crispEdges"/>
<text x="334" y="9" fill="#3f3f3f" font-family="'Courier New', monospace" font-size="10">Go</text>
<text x="333" y="8" fill="#ffffff" font-family="'Courier New', monospace" font-size="10">Go</text>

<rect x="400" y="0" width="10" height="10" fill="#3572a5" shape-rendering="crispEdges"/>
<text x="414" y="9" fill="#3f3f3f" font-family="'Courier New', monospace" font-size="10">Python</text>
<text x="413" y="8" fill="#ffffff" font-family="'Courier New', monospace" font-size="10">Python</text>

</g>



</svg>

